<svg xmlns="http://www.w3.org/2000/svg" width="60" height="60" viewBox="0 0 60 60"><g transform="translate(0)"><path d="M16.324,18.526v-5.85a19.031,19.031,0,0,0,8.727,3.615l2,.286a4.358,4.358,0,0,1,0-3.9,21.493,21.493,0,0,0,8.681,3.882l.095.019v1.95c2.154,0,4.875,9.8,4.875-6.705a6.114,6.114,0,0,0-4.264-5.835,13.678,13.678,0,0,0-24.988,7.691C11.4,27.079,14.171,18.526,16.324,18.526Z" transform="translate(-4.624 0)" fill="#e0e3e8"/><path d="M151.8,354.526l-1.95-11.7,1.617-3.258L147.9,336l-3.567,3.567,1.617,3.258-1.95,11.7Zm0,0" transform="translate(-126.6 -295.501)" fill="#e0e3e8"/><path d="M129.95,160.975a.975.975,0,1,1-.975-.975A.975.975,0,0,1,129.95,160.975Zm0,0" transform="translate(-112.52 -140.65)" fill="#e0e3e8"/><path d="M209.95,160.975a.975.975,0,1,1-.975-.975A.975.975,0,0,1,209.95,160.975Zm0,0" transform="translate(-182.845 -140.65)" fill="#e0e3e8"/><path d="M60,96.3,51.691,88H35.7a6.1,6.1,0,0,1,.1,1.085v.847H50.322v7.729h7.742v28.985H42.581v-4.518a6.712,6.712,0,0,0-.394-2.246H56.129v-1.932H54.193v-6.763H52.258v6.763H50.322v-8.7H48.387v8.7H46.452v-4.831H44.516v4.831h-3.4a6.737,6.737,0,0,0-3.166-2.237l-9.884-3.291v-2.706a10.642,10.642,0,0,0,3.473-5.351,4.815,4.815,0,0,0,.4-9.506V93.007l-.871-.176a20.508,20.508,0,0,1-8.226-3.671l-.927-.695L21.393,89.5a5.311,5.311,0,0,0-.5,3.126l-.479-.069a17.971,17.971,0,0,1-8.218-3.4L10.645,88v6.861a4.815,4.815,0,0,0,.4,9.506,10.642,10.642,0,0,0,3.473,5.351v2.706l-9.884,3.291A6.754,6.754,0,0,0,0,122.129v15.145H42.581v-8.7H60Zm-51.29,3.3a2.9,2.9,0,0,1,1.935-2.721v4.653c0,.27.02.535.041.8A2.894,2.894,0,0,1,8.71,99.594Zm22.06,15.767L27.711,123l-4.987-4.979,4.578-3.809Zm3.1-15.767a2.894,2.894,0,0,1-1.976,2.733c.02-.266.041-.531.041-.8V96.874a2.9,2.9,0,0,1,1.935,2.721Zm-21.29,1.932V91.754a19.932,19.932,0,0,0,7.557,2.717l3.813.543-.826-1.649a3.358,3.358,0,0,1-.332-1.878A22.621,22.621,0,0,0,30,94.575v6.951a8.71,8.71,0,0,1-17.419,0Zm8.71,10.628a10.589,10.589,0,0,0,4.839-1.173v1.686l-4.839,4.026-4.839-4.026v-1.686A10.589,10.589,0,0,0,21.29,112.155Zm-6.012,2.053,4.578,3.809L14.869,123l-3.058-7.635Zm25.367,21.135H34.839v-7.729H32.9v7.729H9.677v-7.729H7.742v7.729H1.935V122.129a4.825,4.825,0,0,1,3.309-4.583l4.728-1.573,4.191,10.46,7.128-7.117,7.128,7.116,4.191-10.46,4.728,1.573a4.828,4.828,0,0,1,3.309,4.584ZM52.258,91.3,56.7,95.73H52.258Zm0,0" transform="translate(0 -77.275)" fill="#e0e3e8"/><path d="M147.9,219.9a3.9,3.9,0,0,0,3.9-3.9h-1.95a1.95,1.95,0,0,1-3.9,0H144A3.9,3.9,0,0,0,147.9,219.9Zm0,0" transform="translate(-126.6 -189.885)" fill="#e0e3e8"/><path d="M448,184h1.95v1.95H448Zm0,0" transform="translate(-393.85 -161.748)" fill="#e0e3e8"/><path d="M312,184h14.626v1.95H312Zm0,0" transform="translate(-274.426 -161.748)" fill="#e0e3e8"/><path d="M312,216h18.526v1.95H312Zm0,0" transform="translate(-274.426 -189.878)" fill="#e0e3e8"/></g></svg>