<svg xmlns="http://www.w3.org/2000/svg" width="60" height="60" viewBox="0 0 60 60"><g transform="translate(-1 -1)"><g transform="translate(32.935 38.742)"><path d="M61.1,54.516H34V41.935A1.935,1.935,0,0,1,35.935,40H59.161A1.935,1.935,0,0,1,61.1,41.935Z" transform="translate(-34 -40)" fill="#e0e3e8"/></g><g transform="translate(6.806 1)"><path d="M21.516,1A14.533,14.533,0,0,0,7,15.516v7.742h.968a3.871,3.871,0,0,1,3.871-3.871v-.968a.968.968,0,0,1,.968-.968H30.226a.968.968,0,0,1,.968.968v.968a3.871,3.871,0,0,1,3.871,3.871h.968V15.516A14.533,14.533,0,0,0,21.516,1Z" transform="translate(-7 -1)" fill="#e0e3e8"/></g><g transform="translate(1 16.484)"><circle cx="0.968" cy="0.968" r="0.968" transform="translate(14.516 3.871)" fill="#e0e3e8"/><circle cx="0.968" cy="0.968" r="0.968" transform="translate(24.194 3.871)" fill="#e0e3e8"/><path d="M25.742,28H23.806a1.935,1.935,0,0,1-3.871,0H18a3.871,3.871,0,0,0,7.742,0Z" transform="translate(-1.548 -17.355)" fill="#e0e3e8"/><path d="M58.1,38.29H34.871a2.876,2.876,0,0,0-1.484.421l-6.258-2.086V34.62a10.678,10.678,0,0,0,4.441-6.065,4.824,4.824,0,0,0,.4-9.522v-.1A1.937,1.937,0,0,0,30.032,17H12.613a1.937,1.937,0,0,0-1.935,1.935v.1a4.824,4.824,0,0,0,.4,9.522,10.671,10.671,0,0,0,4.441,6.065v2.005l-9.885,3.3A6.766,6.766,0,0,0,1,46.347V55.71H32.146a2.9,2.9,0,0,0,2.725,1.935h5.806v1.935H38.742v1.935H54.226V59.581H52.29V57.645H58.1a2.907,2.907,0,0,0,2.9-2.9V41.194A2.907,2.907,0,0,0,58.1,38.29ZM33.9,23.774a2.9,2.9,0,0,1-1.976,2.738c.02-.266.041-.531.041-.8V21.049A2.9,2.9,0,0,1,33.9,23.774Zm-1.935,30H22.29V44.5l4.047,4.047,5.246-8.394.531.177a2.852,2.852,0,0,0-.147.866V53.774ZM29.7,39.52l-3.709,5.935-3.3-3.294,3.732-3.732ZM8.742,23.774a2.9,2.9,0,0,1,1.935-2.725V25.71c0,.271.02.536.041.8A2.9,2.9,0,0,1,8.742,23.774Zm3.871,1.935V18.935H30.032V25.71a8.71,8.71,0,0,1-17.419,0Zm8.71,10.645a10.575,10.575,0,0,0,3.871-.739v1.306l-3.871,3.871-3.871-3.871V35.615A10.575,10.575,0,0,0,21.323,36.355Zm-5.1,2.075,3.732,3.732L16.66,45.455,12.951,39.52ZM6.244,41.756l4.817-1.605,5.246,8.4L20.355,44.5v9.277H10.677V47H8.742v2.9H2.935V46.347A4.833,4.833,0,0,1,6.244,41.756ZM2.935,51.839H8.742v1.935H2.935Zm47.419,7.742H42.613V57.645h7.742Zm8.71-4.839a.969.969,0,0,1-.968.968H34.871a.969.969,0,0,1-.968-.968V41.194a.969.969,0,0,1,.968-.968H58.1a.969.969,0,0,1,.968.968Z" transform="translate(-1 -17)" fill="#e0e3e8"/></g></g></svg>