<svg xmlns="http://www.w3.org/2000/svg" width="60" height="60" viewBox="0 0 60 60"><g transform="translate(0)"><path d="M53.736,10.359c-1.848-7.256-5.922-9.218-6.1-9.3L46.8.671l-.955,1.813C44.135,1.552,40.039,0,31.743,0H30.5l.9,3.59-4.656-.932.959,7.673L24,9.406v1.239c0,7.016,2.97,11.057,3.1,11.226l.831-.01a3.927,3.927,0,0,1-.057-.571,3.871,3.871,0,0,1,3.871-3.871v-2.9l.608.365a28.492,28.492,0,0,0,9.07,3.506l-.1-.2a8.207,8.207,0,0,1-.865-3.667,20.376,20.376,0,0,0,10.482,2.9H51.1a3.871,3.871,0,0,1,3.871,3.871c0,.084-.019.163-.025.246l.963-.011a48.841,48.841,0,0,0,1-10.88V9.3Zm0,0" transform="translate(-21.097)" fill="#e0e3e8"/><path d="M30.8,119.106a4.83,4.83,0,0,0,.172-9.5v-2.033H29.032v1.918a19.4,19.4,0,0,1-9.179-2.748l-1.466-.88v1.71a9.192,9.192,0,0,0,.35,2.505,27.491,27.491,0,0,1-6.987-2.97l-2.073-1.246v3.743a4.828,4.828,0,0,0,.172,9.5,10.652,10.652,0,0,0,4.666,7.059v2l-9.884,3.3A6.764,6.764,0,0,0,0,137.887v9.364H28.064v-1.935H9.677v-7.742H7.742v7.742H1.935v-7.428a4.832,4.832,0,0,1,3.309-4.59l9.628-3.209a5.908,5.908,0,0,0,4.482,3.533v9.759H21.29v-9.759a5.9,5.9,0,0,0,4.482-3.533l2.971.99.612-1.835-3.227-1.077v-2a10.654,10.654,0,0,0,4.666-7.055Zm2.108-4.758a2.9,2.9,0,0,1-1.935,2.725v-5.449a2.9,2.9,0,0,1,1.935,2.724Zm-25.161,0a2.9,2.9,0,0,1,1.935-2.725v5.449a2.9,2.9,0,0,1-1.935-2.724Zm3.871,2.9v-7.988a29.392,29.392,0,0,0,8.52,3.13l1.94.388-.987-1.974a7.2,7.2,0,0,1-.55-1.5,21.348,21.348,0,0,0,8.5,2.117v5.823a8.71,8.71,0,0,1-17.419,0Zm12.581,11.49v0a3.989,3.989,0,0,1-7.741,0v-1.587a10.5,10.5,0,0,0,7.742,0Zm0,0" transform="translate(0 -93.057)" fill="#e0e3e8"/><path d="M192,400h1.935v1.935H192Zm0,0" transform="translate(-168.774 -351.613)" fill="#e0e3e8"/><path d="M192,368h1.935v1.935H192Zm0,0" transform="translate(-168.774 -323.484)" fill="#e0e3e8"/><path d="M192,336h1.935v1.935H192Zm0,0" transform="translate(-168.774 -295.355)" fill="#e0e3e8"/><path d="M143.742,216h-1.935a1.935,1.935,0,0,1-3.871,0H136a3.871,3.871,0,0,0,7.742,0Zm0,0" transform="translate(-119.549 -189.871)" fill="#e0e3e8"/><path d="M121.935,160.968a.968.968,0,1,1-.968-.968A.968.968,0,0,1,121.935,160.968Zm0,0" transform="translate(-105.484 -140.645)" fill="#e0e3e8"/><path d="M201.935,160.968a.968.968,0,1,1-.968-.968A.968.968,0,0,1,201.935,160.968Zm0,0" transform="translate(-175.807 -140.645)" fill="#e0e3e8"/><path d="M252.065,272.338H228.839A4.844,4.844,0,0,1,224,267.5V252.015a4.844,4.844,0,0,1,4.839-4.839h6.774v-5.618l8.988,5.618h7.464a4.844,4.844,0,0,1,4.839,4.839V267.5A4.844,4.844,0,0,1,252.065,272.338Zm0,0" transform="translate(-196.903 -212.338)" fill="#e0e3e8"/><path d="M-1537.633,2470.4a4.968,4.968,0,0,1-4.368-4.982v-1.768a4.845,4.845,0,0,1,4.839-4.839h4.838v-.968a2.908,2.908,0,0,1,2.9-2.9h1.935a.969.969,0,0,0,.968-.968V2453h1.935v.969a2.907,2.907,0,0,1-2.9,2.9h-1.935a.968.968,0,0,0-.968.968v.968h4.839a4.844,4.844,0,0,1,4.838,4.839v1.768a4.968,4.968,0,0,1-4.366,4.983q-.232.022-.463.021a4.856,4.856,0,0,1-3.263-1.256,4.863,4.863,0,0,1-1.487-2.615h-2.132a4.855,4.855,0,0,1-1.486,2.615,4.857,4.857,0,0,1-3.259,1.257Q-1537.4,2470.419-1537.633,2470.4Zm-2.432-6.751v1.768a3.019,3.019,0,0,0,2.616,3.057,2.912,2.912,0,0,0,2.24-.741,2.912,2.912,0,0,0,.95-2.149v-.967h5.806v.967a2.905,2.905,0,0,0,.951,2.148,2.9,2.9,0,0,0,2.24.741,3.019,3.019,0,0,0,2.615-3.056v-1.768a2.907,2.907,0,0,0-2.9-2.9h-11.613A2.907,2.907,0,0,0-1540.065,2463.646Zm13.549.968v-1.936h1.935v1.936Zm-11.613,0v-1.936h1.935v1.936Z" transform="translate(1574.903 -2414.29)" fill="#fff"/></g></svg>